<svg width="71" height="71" viewBox="0 0 71 71" fill="none" xmlns="http://www.w3.org/2000/svg">
<g filter="url(#filter0_d_443_202)">
<rect x="8.93079" y="5" width="56" height="56" rx="8" transform="rotate(3 8.93079 5)" fill="black" fill-opacity="0.12" shape-rendering="crispEdges"/>
<rect x="7.0382" y="2.89807" width="60" height="60" rx="10" transform="rotate(3 7.0382 2.89807)" stroke="white" stroke-width="4" shape-rendering="crispEdges"/>
<g clip-path="url(#clip0_443_202)">
<path d="M45.3085 36.9476C45.2897 37.3549 45.1452 37.7464 44.8947 38.0682C44.6443 38.3899 44.3003 38.6262 43.9101 38.7444L37.3467 40.7862L34.6373 47.1056C34.4768 47.4798 34.2055 47.7957 33.8598 48.0109C33.5141 48.226 33.1108 48.3299 32.7042 48.3086C32.2976 48.2873 31.9073 48.1418 31.586 47.8917C31.2647 47.6416 31.0279 47.299 30.9074 46.9101L28.8584 40.3413L22.539 37.6319C22.1648 37.4715 21.8488 37.2001 21.6337 36.8544C21.4186 36.5087 21.3147 36.1054 21.336 35.6988C21.3573 35.2922 21.5028 34.9019 21.7529 34.5806C22.003 34.2593 22.3456 34.0225 22.7345 33.902L29.3032 31.853L32.0127 25.5336C32.1731 25.1594 32.4445 24.8434 32.7902 24.6283C33.1359 24.4132 33.5392 24.3093 33.9458 24.3306C34.3524 24.3519 34.7427 24.4974 35.064 24.7475C35.3853 24.9976 35.6221 25.3402 35.7426 25.7291L37.7916 32.2979L44.111 35.0073C44.4869 35.1669 44.804 35.4393 45.0185 35.7869C45.233 36.1344 45.3344 36.54 45.3085 36.9476ZM38.9462 24.5977L40.9434 24.7024L40.8388 26.6997C40.8249 26.9645 40.9168 27.224 41.0942 27.4211C41.2717 27.6182 41.5202 27.7367 41.7851 27.7506C42.0499 27.7645 42.3094 27.6726 42.5065 27.4951C42.7036 27.3177 42.8221 27.0692 42.836 26.8043L42.9407 24.8071L44.9379 24.9117C45.2028 24.9256 45.4623 24.8337 45.6594 24.6563C45.8565 24.4788 45.975 24.2303 45.9889 23.9654C46.0028 23.7006 45.9109 23.4411 45.7334 23.244C45.556 23.0469 45.3075 22.9284 45.0426 22.9145L43.0454 22.8098L43.15 20.8126C43.1639 20.5477 43.072 20.2882 42.8945 20.0911C42.7171 19.894 42.4686 19.7755 42.2037 19.7616C41.9389 19.7477 41.6794 19.8396 41.4823 20.0171C41.2852 20.1945 41.1667 20.443 41.1528 20.7079L41.0481 22.7051L39.0508 22.6005C38.786 22.5866 38.5265 22.6785 38.3294 22.856C38.1323 23.0334 38.0138 23.2819 37.9999 23.5468C37.986 23.8116 38.0779 24.0711 38.2554 24.2682C38.4328 24.4653 38.6813 24.5838 38.9462 24.5977ZM49.7218 29.1679L48.7231 29.1156L48.7755 28.117C48.7893 27.8521 48.6974 27.5926 48.52 27.3955C48.3425 27.1984 48.094 27.0799 47.8292 27.066C47.5643 27.0521 47.3048 27.144 47.1077 27.3215C46.9106 27.499 46.7921 27.7474 46.7782 28.0123L46.7259 29.0109L45.7272 28.9586C45.4624 28.9447 45.2029 29.0366 45.0058 29.2141C44.8087 29.3915 44.6901 29.64 44.6763 29.9049C44.6624 30.1697 44.7543 30.4293 44.9318 30.6264C45.1092 30.8234 45.3577 30.942 45.6226 30.9559L46.6212 31.0082L46.5689 32.0068C46.555 32.2717 46.6469 32.5312 46.8243 32.7283C47.0018 32.9254 47.2503 33.0439 47.5151 33.0578C47.78 33.0717 48.0395 32.9798 48.2366 32.8023C48.4337 32.6248 48.5522 32.3763 48.5661 32.1115L48.6184 31.1129L49.6171 31.1652C49.8819 31.1791 50.1415 31.0872 50.3385 30.9097C50.5356 30.7322 50.6542 30.4838 50.668 30.2189C50.6819 29.9541 50.59 29.6945 50.4126 29.4974C50.2351 29.3003 49.9866 29.1818 49.7218 29.1679Z" fill="url(#paint0_linear_443_202)"/>
</g>
</g>
<defs>
<filter id="filter0_d_443_202" x="0.407349" y="0.40744" width="70.0393" height="70.0392" filterUnits="userSpaceOnUse" color-interpolation-filters="sRGB">
<feFlood flood-opacity="0" result="BackgroundImageFix"/>
<feColorMatrix in="SourceAlpha" type="matrix" values="0 0 0 0 0 0 0 0 0 0 0 0 0 0 0 0 0 0 127 0" result="hardAlpha"/>
<feMorphology radius="2" operator="erode" in="SourceAlpha" result="effect1_dropShadow_443_202"/>
<feOffset dy="1"/>
<feGaussianBlur stdDeviation="2"/>
<feComposite in2="hardAlpha" operator="out"/>
<feColorMatrix type="matrix" values="0 0 0 0 0 0 0 0 0 0 0 0 0 0 0 0 0 0 0.24 0"/>
<feBlend mode="normal" in2="BackgroundImageFix" result="effect1_dropShadow_443_202"/>
<feBlend mode="normal" in="SourceGraphic" in2="effect1_dropShadow_443_202" result="shape"/>
</filter>
<linearGradient id="paint0_linear_443_202" x1="36.7087" y1="19.4736" x2="35.1907" y2="48.4389" gradientUnits="userSpaceOnUse">
<stop/>
<stop offset="1" stop-opacity="0.56"/>
</linearGradient>
<clipPath id="clip0_443_202">
<rect width="32" height="32" fill="white" transform="translate(20.2863 17.6116) rotate(3)"/>
</clipPath>
</defs>
</svg>
